<?xml version="1.0" encoding="utf-8"?>
<!-- Generator: Adobe Illustrator 16.0.0, SVG Export Plug-In . SVG Version: 6.00 Build 0)  -->
<!DOCTYPE svg PUBLIC "-//W3C//DTD SVG 1.1//EN" "http://www.w3.org/Graphics/SVG/1.1/DTD/svg11.dtd">
<svg version="1.1" id="Layer_1" xmlns="http://www.w3.org/2000/svg" xmlns:xlink="http://www.w3.org/1999/xlink" x="0px" y="0px"
	 width="96px" height="14.609px" viewBox="0 0 96 14.609" enable-background="new 0 0 96 14.609" xml:space="preserve">
<g>
	<path d="M6.798,1.804C6.854,1.58,7.008,1.468,7.26,1.468c0.224,0,0.448,0.112,0.672,0.336C8.128,2,8.227,2.924,8.227,4.575
		c0,1.765,0.042,2.898,0.126,3.402c0.14,0.812,0.21,1.4,0.21,1.764c0,0.196-0.028,0.351-0.084,0.462
		c-0.141,0.364-0.406,0.547-0.798,0.547c-0.168,0-0.309-0.042-0.42-0.126c-0.112-0.057-0.231-0.231-0.357-0.525
		S6.728,9.56,6.756,9.363c0-0.027-0.21-0.279-0.63-0.756C5.371,7.852,4.712,7.054,4.152,6.214c-0.196-0.28-0.448-0.581-0.756-0.903
		c-0.309-0.321-0.49-0.483-0.546-0.483c-0.057,0-0.112,0.757-0.168,2.269C2.626,8.552,2.549,9.483,2.452,9.889
		c-0.099,0.406-0.343,0.707-0.735,0.903c-0.336,0.168-0.574,0.252-0.714,0.252c-0.225,0-0.336-0.238-0.336-0.715
		c0-0.308,0.014-0.573,0.042-0.798C0.764,9.14,0.82,7.852,0.876,5.668c0.027-1.288,0.098-2.121,0.21-2.499
		C1.198,2.791,1.45,2.462,1.842,2.182c0.14-0.084,0.294-0.126,0.462-0.126c0.392,0,0.588,0.154,0.588,0.462
		c0,0.141,0.153,0.336,0.462,0.588C3.746,3.414,4.32,4.1,5.077,5.163c0.951,1.289,1.525,1.933,1.722,1.933
		c0.028,0,0.042-0.237,0.042-0.714c0-0.729-0.014-1.316-0.042-1.765C6.77,4.226,6.756,3.693,6.756,3.021
		C6.756,2.294,6.77,1.888,6.798,1.804z"/>
	<path d="M17.046,1.048c0.448-0.224,0.826-0.336,1.134-0.336c0.336,0,0.784,0.14,1.344,0.42c0.616,0.309,1.057,0.798,1.323,1.47
		c0.266,0.672,0.468,1.834,0.609,3.486c0.056,0.616,0.084,1.022,0.084,1.218c0,0.84-0.154,1.463-0.462,1.869
		c-0.309,0.406-0.868,0.791-1.68,1.154c-0.7,0.337-1.512,0.505-2.436,0.505c-0.812,0-1.484-0.141-2.016-0.421
		C13.63,9.741,12.972,8.3,12.972,6.088c0-0.504,0.042-1.009,0.126-1.513c0.224-1.231,0.924-2.127,2.1-2.688
		C15.981,1.552,16.598,1.272,17.046,1.048z M19.062,2.476C18.838,2.28,18.6,2.182,18.348,2.182c-0.448,0-1.106,0.393-1.974,1.176
		c-0.645,0.616-1.134,1.05-1.47,1.302c-0.252,0.196-0.378,0.715-0.378,1.555c0,2.156,0.924,3.233,2.772,3.233
		c0.363,0,0.644-0.014,0.84-0.042c0.672-0.084,1.141-0.3,1.407-0.65s0.399-0.945,0.399-1.785c0-0.224-0.028-0.7-0.084-1.428
		C19.692,3.806,19.426,2.784,19.062,2.476z"/>
	<path d="M30.696,3.735l0.462-0.084H31.2c0.111,0,0.287,0.099,0.525,0.294c0.238,0.196,0.413,0.393,0.525,0.588
		c0.14,0.225,0.21,0.462,0.21,0.714c0,0.421-0.168,0.631-0.504,0.631c-0.252,0-0.504-0.141-0.756-0.42
		c-0.252-0.28-0.603-0.393-1.05-0.337c-0.364,0.028-0.791,0.183-1.281,0.463c-0.49,0.28-0.735,0.504-0.735,0.672
		c0,0.112,0.21,0.23,0.63,0.356s0.854,0.189,1.302,0.189h0.294c0.056,0,0.126-0.007,0.21-0.021c0.084-0.014,0.153-0.021,0.21-0.021
		c1.036,0,1.792,0.294,2.268,0.882c0.195,0.196,0.294,0.393,0.294,0.588c0,0.252-0.154,0.896-0.462,1.932
		c-0.28,0.98-1.05,1.681-2.31,2.101c-0.588,0.168-1.302,0.252-2.142,0.252s-1.344-0.084-1.512-0.252
		c-0.112-0.111-0.168-0.237-0.168-0.378c0-0.224,0.105-0.427,0.315-0.609c0.21-0.182,0.441-0.272,0.693-0.272
		c0.14,0,0.237,0.014,0.294,0.042c0.252,0.084,0.615,0.126,1.092,0.126c0.644,0,1.106-0.07,1.386-0.21
		c0.252-0.141,0.504-0.42,0.756-0.841c0.252-0.42,0.378-0.798,0.378-1.134s-0.112-0.553-0.336-0.65
		c-0.225-0.099-0.672-0.161-1.344-0.189c-0.896-0.027-1.792-0.294-2.688-0.798c-0.896-0.504-1.344-0.994-1.344-1.47
		c0-0.196,0.069-0.351,0.21-0.462c0.14-0.112,0.329-0.211,0.567-0.295c0.238-0.084,0.385-0.153,0.441-0.21
		C28.092,4.352,29.268,3.96,30.696,3.735z"/>
	<path d="M41.826,1.048c0.448-0.224,0.826-0.336,1.134-0.336c0.336,0,0.784,0.14,1.344,0.42c0.616,0.309,1.057,0.798,1.323,1.47
		c0.266,0.672,0.468,1.834,0.609,3.486c0.056,0.616,0.084,1.022,0.084,1.218c0,0.84-0.154,1.463-0.462,1.869
		c-0.309,0.406-0.868,0.791-1.68,1.154c-0.7,0.337-1.512,0.505-2.436,0.505c-0.812,0-1.484-0.141-2.016-0.421
		C38.41,9.741,37.752,8.3,37.752,6.088c0-0.504,0.042-1.009,0.126-1.513c0.224-1.231,0.924-2.127,2.1-2.688
		C40.761,1.552,41.377,1.272,41.826,1.048z M43.842,2.476c-0.224-0.195-0.462-0.294-0.714-0.294c-0.448,0-1.106,0.393-1.974,1.176
		c-0.645,0.616-1.134,1.05-1.47,1.302c-0.252,0.196-0.378,0.715-0.378,1.555c0,2.156,0.924,3.233,2.772,3.233
		c0.363,0,0.644-0.014,0.84-0.042c0.672-0.084,1.141-0.3,1.407-0.65s0.399-0.945,0.399-1.785c0-0.224-0.028-0.7-0.084-1.428
		C44.472,3.806,44.206,2.784,43.842,2.476z"/>
	<path d="M53.292,4.029c0.168-0.168,0.336-0.252,0.504-0.252c0.196,0,0.378,0.084,0.546,0.252c0.196,0.168,0.854,0.252,1.974,0.252
		h1.764l0.084,0.588c0.084,0.393,0.069,0.645-0.042,0.757c-0.084,0.084-0.7,0.126-1.848,0.126l-1.68-0.084L54.51,8.146
		c-0.028,0.504-0.042,1.134-0.042,1.89c0,1.205,0.126,2.087,0.378,2.646c0.112,0.196,0.168,0.406,0.168,0.63
		c0,0.393-0.141,0.588-0.42,0.588c-0.112,0-0.294,0.042-0.546,0.126h-0.084l-0.084,0.042c-0.28,0-0.469-0.427-0.567-1.281
		c-0.099-0.854-0.175-2.568-0.231-5.145l-0.042-1.68L52.074,5.92c-0.588,0-0.966-0.099-1.134-0.294
		c-0.141-0.225-0.21-0.406-0.21-0.547c0-0.531,0.518-0.798,1.554-0.798C52.844,4.281,53.18,4.197,53.292,4.029z"/>
	<path d="M65.724,1.93c0.98-0.504,1.736-0.756,2.268-0.756c0.308,0,0.602,0.07,0.882,0.21c0.28,0.141,0.42,0.364,0.42,0.672
		c0,0.28-0.014,0.532-0.042,0.756c-0.084,1.512-0.518,2.59-1.302,3.234c-0.364,0.336-0.519,0.645-0.462,0.924
		c0.084,0.309,0.378,0.756,0.882,1.344s0.98,1.022,1.428,1.302c0.476,0.28,0.714,0.504,0.714,0.672c0,0.057-0.042,0.162-0.126,0.315
		c-0.084,0.154-0.141,0.273-0.168,0.357c-0.084,0.196-0.267,0.294-0.546,0.294c-0.336,0-0.785-0.28-1.344-0.841
		c-0.561-0.56-1.106-1.26-1.638-2.1c-0.504-0.812-0.812-1.218-0.924-1.218c-0.084,0-0.126-0.084-0.126-0.252
		c0-0.279-0.267-0.42-0.798-0.42c-0.196,0-0.294,0.168-0.294,0.504c0,0.364,0.084,0.924,0.252,1.68c0.14,0.756,0.21,1.26,0.21,1.512
		c0,0.589-0.21,0.883-0.63,0.883c-0.028,0-0.07-0.007-0.126-0.021c-0.056-0.014-0.098-0.021-0.126-0.021
		c-0.28-0.057-0.476-0.175-0.588-0.357c-0.112-0.182-0.266-0.637-0.462-1.365c-0.225-0.783-0.336-1.848-0.336-3.191
		c0-0.841,0.014-1.513,0.042-2.017c0-0.504-0.028-0.825-0.084-0.966c-0.057-0.111-0.07-0.21-0.042-0.294
		c0.027-0.084,0.069-0.147,0.126-0.189c0.056-0.042,0.182-0.104,0.378-0.188C63.498,2.224,63.7,2.14,63.771,2.14
		c0.07,0,0.189,0.084,0.357,0.252c0.084,0.084,0.168,0.126,0.252,0.126C64.52,2.518,64.968,2.322,65.724,1.93z M67.026,2.644
		c-0.168,0.028-0.574,0.238-1.218,0.63c-0.645,0.393-0.966,0.645-0.966,0.756c0,0.028-0.007,0.084-0.021,0.168
		C64.806,4.281,64.8,4.338,64.8,4.365c0,0.112,0.294,0.336,0.882,0.672c0.56,0.309,0.882,0.463,0.966,0.463s0.168-0.042,0.252-0.126
		c0.196-0.141,0.42-0.497,0.672-1.071s0.378-1.015,0.378-1.323c0-0.14-0.015-0.259-0.042-0.357
		c-0.028-0.098-0.091-0.146-0.189-0.146c-0.099,0-0.162,0-0.189,0c-0.028,0-0.126,0.028-0.294,0.084L67.026,2.644z"/>
	<path d="M79.037,1.048c0.448-0.224,0.826-0.336,1.134-0.336c0.336,0,0.784,0.14,1.344,0.42c0.616,0.309,1.057,0.798,1.323,1.47
		c0.266,0.672,0.468,1.834,0.609,3.486c0.056,0.616,0.084,1.022,0.084,1.218c0,0.84-0.154,1.463-0.462,1.869
		c-0.309,0.406-0.868,0.791-1.68,1.154c-0.7,0.337-1.512,0.505-2.436,0.505c-0.812,0-1.484-0.141-2.016-0.421
		c-1.316-0.672-1.974-2.113-1.974-4.325c0-0.504,0.042-1.009,0.126-1.513c0.224-1.231,0.924-2.127,2.1-2.688
		C77.973,1.552,78.589,1.272,79.037,1.048z M81.053,2.476c-0.224-0.195-0.462-0.294-0.714-0.294c-0.448,0-1.106,0.393-1.974,1.176
		c-0.645,0.616-1.134,1.05-1.47,1.302c-0.252,0.196-0.378,0.715-0.378,1.555c0,2.156,0.924,3.233,2.772,3.233
		c0.363,0,0.644-0.014,0.84-0.042c0.672-0.084,1.141-0.3,1.407-0.65s0.399-0.945,0.399-1.785c0-0.224-0.028-0.7-0.084-1.428
		C81.683,3.806,81.417,2.784,81.053,2.476z"/>
	<path d="M92.688,3.735l0.462-0.084h0.042c0.111,0,0.287,0.099,0.525,0.294c0.238,0.196,0.413,0.393,0.525,0.588
		c0.14,0.225,0.21,0.462,0.21,0.714c0,0.421-0.168,0.631-0.504,0.631c-0.252,0-0.504-0.141-0.756-0.42
		c-0.252-0.28-0.603-0.393-1.05-0.337c-0.364,0.028-0.791,0.183-1.281,0.463c-0.49,0.28-0.735,0.504-0.735,0.672
		c0,0.112,0.21,0.23,0.63,0.356s0.854,0.189,1.302,0.189h0.294c0.056,0,0.126-0.007,0.21-0.021c0.084-0.014,0.153-0.021,0.21-0.021
		c1.036,0,1.792,0.294,2.268,0.882c0.195,0.196,0.294,0.393,0.294,0.588c0,0.252-0.154,0.896-0.462,1.932
		c-0.28,0.98-1.05,1.681-2.31,2.101c-0.588,0.168-1.302,0.252-2.142,0.252s-1.344-0.084-1.512-0.252
		c-0.112-0.111-0.168-0.237-0.168-0.378c0-0.224,0.105-0.427,0.315-0.609c0.21-0.182,0.441-0.272,0.693-0.272
		c0.14,0,0.237,0.014,0.294,0.042c0.252,0.084,0.615,0.126,1.092,0.126c0.644,0,1.106-0.07,1.386-0.21
		c0.252-0.141,0.504-0.42,0.756-0.841c0.252-0.42,0.378-0.798,0.378-1.134s-0.112-0.553-0.336-0.65
		c-0.225-0.099-0.672-0.161-1.344-0.189c-0.896-0.027-1.792-0.294-2.688-0.798c-0.896-0.504-1.344-0.994-1.344-1.47
		c0-0.196,0.069-0.351,0.21-0.462c0.14-0.112,0.329-0.211,0.567-0.295c0.238-0.084,0.385-0.153,0.441-0.21
		C90.083,4.352,91.259,3.96,92.688,3.735z"/>
</g>
</svg>
